<?xml version="1.0" encoding="utf-8"?>
<!-- Generator: Adobe Illustrator 22.0.0, SVG Export Plug-In . SVG Version: 6.00 Build 0)  -->
<svg version="1.1" id="Layer_1" xmlns="http://www.w3.org/2000/svg" xmlns:xlink="http://www.w3.org/1999/xlink" x="0px" y="0px"
	 viewBox="0 0 21.4 22" style="enable-background:new 0 0 21.4 22;" xml:space="preserve">
<style type="text/css">
	.st0{clip-path:url(#SVGID_2_);fill:#FBBC05;}
	.st1{clip-path:url(#SVGID_4_);fill:#EA4335;}
	.st2{clip-path:url(#SVGID_6_);fill:#34A853;}
	.st3{clip-path:url(#SVGID_8_);fill:#4285F4;}
</style>
<g>
	<defs>
		<path id="SVGID_1_" d="M21.3,9H11v4.3h5.9c-0.5,2.7-2.8,4.3-5.9,4.3c-3.6,0-6.5-2.9-6.5-6.5S7.4,4.5,11,4.5c1.6,0,2.9,0.6,4,1.4
			l3.2-3.2C16.3,1,13.8,0,11,0C4.9,0,0,4.9,0,11s4.9,11,11,11c5.5,0,10.5-4,10.5-11C21.5,10.4,21.4,9.6,21.3,9z"/>
	</defs>
	<clipPath id="SVGID_2_">
		<use xlink:href="#SVGID_1_"  style="overflow:visible;"/>
	</clipPath>
	<path class="st0" d="M-1,17.5v-13L7.5,11L-1,17.5z"/>
</g>
<g>
	<defs>
		<path id="SVGID_3_" d="M21.3,9H11v4.3h5.9c-0.5,2.7-2.8,4.3-5.9,4.3c-3.6,0-6.5-2.9-6.5-6.5S7.4,4.5,11,4.5c1.6,0,2.9,0.6,4,1.4
			l3.2-3.2C16.3,1,13.8,0,11,0C4.9,0,0,4.9,0,11s4.9,11,11,11c5.5,0,10.5-4,10.5-11C21.5,10.4,21.4,9.6,21.3,9z"/>
	</defs>
	<clipPath id="SVGID_4_">
		<use xlink:href="#SVGID_3_"  style="overflow:visible;"/>
	</clipPath>
	<path class="st1" d="M-1,4.5L7.5,11L11,7.9L23,6v-7H-1V4.5z"/>
</g>
<g>
	<defs>
		<path id="SVGID_5_" d="M21.3,9H11v4.3h5.9c-0.5,2.7-2.8,4.3-5.9,4.3c-3.6,0-6.5-2.9-6.5-6.5S7.4,4.5,11,4.5c1.6,0,2.9,0.6,4,1.4
			l3.2-3.2C16.3,1,13.8,0,11,0C4.9,0,0,4.9,0,11s4.9,11,11,11c5.5,0,10.5-4,10.5-11C21.5,10.4,21.4,9.6,21.3,9z"/>
	</defs>
	<clipPath id="SVGID_6_">
		<use xlink:href="#SVGID_5_"  style="overflow:visible;"/>
	</clipPath>
	<path class="st2" d="M-1,17.5L14,6l4,0.5L23-1v24H-1V17.5z"/>
</g>
<g>
	<defs>
		<path id="SVGID_7_" d="M21.3,9H11v4.3h5.9c-0.5,2.7-2.8,4.3-5.9,4.3c-3.6,0-6.5-2.9-6.5-6.5S7.4,4.5,11,4.5c1.6,0,2.9,0.6,4,1.4
			l3.2-3.2C16.3,1,13.8,0,11,0C4.9,0,0,4.9,0,11s4.9,11,11,11c5.5,0,10.5-4,10.5-11C21.5,10.4,21.4,9.6,21.3,9z"/>
	</defs>
	<clipPath id="SVGID_8_">
		<use xlink:href="#SVGID_7_"  style="overflow:visible;"/>
	</clipPath>
	<path class="st3" d="M23,23L7.5,11l-2-1.5l17.5-5V23z"/>
</g>
</svg>
